<svg width="50" height="45" fill="none" xmlns="http://www.w3.org/2000/svg"><path d="M3.487 36.87C1.767 36.87 0 38.246 0 40.657c0 2.205 1.554 3.762 3.487 3.762 1.595 0 2.307-1.07 2.307-1.07v.466c0 .22.208.467.466.467h1.154v-7.25h-1.62v.92s-.717-1.084-2.307-1.084zm.289 1.481c1.415 0 2.157 1.245 2.157 2.307 0 1.182-.881 2.305-2.154 2.305-1.065 0-2.13-.862-2.13-2.32 0-1.318.917-2.292 2.127-2.292zm5.889 5.931a.453.453 0 01-.467-.466v-6.782h1.62v.897c.367-.552 1.085-1.064 2.185-1.064 1.8 0 2.758 1.434 2.758 2.775v4.64h-1.126a.496.496 0 01-.494-.494V40c0-.743-.456-1.646-1.51-1.646-1.136 0-1.813 1.074-1.813 2.085v3.844H9.665zm10.818-7.413c-1.719 0-3.487 1.377-3.487 3.789 0 2.204 1.555 3.762 3.487 3.762 1.596 0 2.307-1.071 2.307-1.071v.467c0 .22.208.466.466.466h1.154V33.41h-1.62v4.544s-.717-1.084-2.307-1.084zm.289 1.482c1.415 0 2.158 1.245 2.158 2.306 0 1.183-.882 2.306-2.155 2.306-1.064 0-2.13-.862-2.13-2.321 0-1.317.917-2.291 2.127-2.291zm5.889 5.931a.453.453 0 01-.467-.466v-6.783h1.62v1.209c.28-.677.88-1.29 1.95-1.29.298 0 .576.054.576.054v1.675s-.347-.137-.768-.137c-1.137 0-1.758 1.074-1.758 2.085v3.653h-1.153zm13.509 0a.453.453 0 01-.467-.466v-6.782h1.62v7.248H40.17zm5.904-7.413c-1.72 0-3.487 1.377-3.487 3.789 0 2.204 1.554 3.762 3.487 3.762 1.595 0 2.306-1.071 2.306-1.071v.467c0 .22.209.466.467.466H50V33.41h-1.62v4.544s-.717-1.084-2.306-1.084zm.288 1.482c1.415 0 2.158 1.245 2.158 2.306 0 1.183-.882 2.306-2.155 2.306-1.064 0-2.13-.862-2.13-2.321 0-1.317.917-2.291 2.127-2.291zM40.5 35.47a1.071 1.071 0 100-2.143 1.071 1.071 0 000 2.143zm-5.887 1.397c-1.8 0-3.779 1.344-3.779 3.778 0 2.219 1.685 3.775 3.775 3.775 2.575 0 3.833-2.07 3.833-3.76 0-2.075-1.62-3.793-3.83-3.793zm.006 1.513c1.245 0 2.174 1.003 2.174 2.27 0 1.289-.986 2.283-2.17 2.283-1.1 0-2.169-.894-2.169-2.261 0-1.39 1.017-2.292 2.165-2.292z" fill="#000"/><path d="M37.203 9.219l4.145-7.18A.842.842 0 0041.043.89a.831.831 0 00-1.142.304l-4.2 7.273c-3.203-1.463-6.81-2.28-10.688-2.28-3.878 0-7.484.817-10.688 2.28l-4.2-7.273A.837.837 0 008.979.891a.837.837 0 00-.305 1.148l4.145 7.18C5.671 13.09.83 20.326.03 28.795h49.966c-.8-8.47-5.64-15.704-12.793-19.576zm-23.662 12.56a2.095 2.095 0 010-4.19 2.095 2.095 0 010 4.19zm22.939 0a2.095 2.095 0 010-4.19 2.095 2.095 0 010 4.19z" fill="#32DE84"/></svg>