<svg width="62" height="60" fill="none" xmlns="http://www.w3.org/2000/svg"><path fill-rule="evenodd" clip-rule="evenodd" d="M11 8.244L31.942.776l21.493 7.338-3.474 27.695-18.02 9.967-17.727-9.837L11 8.244z" fill="#E23237"/><path fill-rule="evenodd" clip-rule="evenodd" d="M53.435 8.114L31.941.776v45l18.02-9.967 3.474-27.695z" fill="#B52E31"/><path fill-rule="evenodd" clip-rule="evenodd" d="M31.974 6.036L18.922 35.062l4.87-.097 2.63-6.559h11.656l2.857 6.624 4.643.097-13.604-29.09zm.033 9.318l4.415 9.221h-8.28l3.865-9.22z" fill="#fff"/><path fill-rule="evenodd" clip-rule="evenodd" d="M10 59.031v-9.06h1.165l5.537 7.291V49.97h1.108v9.061h-1.165l-5.538-7.364v7.364H10zm16.827-.36a6.724 6.724 0 01-2.358.418c-3.28 0-4.92-1.568-4.92-4.718 0-2.977 1.583-4.473 4.747-4.473.906 0 1.755.13 2.531.374v1.007a6.584 6.584 0 00-2.402-.446c-2.473 0-3.71 1.18-3.71 3.51 0 2.516 1.222 3.767 3.653 3.767.388 0 .82-.057 1.294-.158v-3.034h1.165v3.753zm1.87-3.135V49.97h1.165v5.566c0 1.74.863 2.618 2.603 2.618 1.726 0 2.603-.878 2.603-2.618V49.97h1.165v5.566c0 2.373-1.25 3.567-3.768 3.567-2.517 0-3.768-1.194-3.768-3.567zm10.787-5.566v8.112h4.746v.949h-5.911v-9.06h1.165zm6.429 9.061H44.69l4.502-10.255 4.502 10.255h-1.295l-1.165-2.848h-2.991l.316-.949h2.287l-1.697-4.099-3.236 7.896zm9.032 0v-9.06h3.869c1.726 0 2.589.718 2.589 2.17 0 1.18-.849 2.058-2.532 2.618l3.107 4.272h-1.54l-2.876-4.07v-.762c1.726-.274 2.604-.935 2.604-2 0-.834-.475-1.25-1.439-1.25H56.14v8.082h-1.194zm-53.723 0H0l4.502-10.255 4.501 10.255H7.71l-1.165-2.848H3.552l.317-.949h2.287l-1.697-4.099-3.236 7.896z" fill="#B52E31"/></svg>