<svg width="45" height="51" fill="none" xmlns="http://www.w3.org/2000/svg"><g clip-path="url(#clip0)"><path d="M43.866 38.276c.349-.604.566-1.284.566-1.895v-21.21c0-.61-.217-1.29-.566-1.895l-21.65 12.5 21.65 12.5z" fill="#00599C"/><path d="M24.14 50.318l18.368-10.605c.529-.305 1.01-.833 1.358-1.437l-21.65-12.5-21.65 12.5c.348.604.829 1.132 1.358 1.437l18.368 10.605c1.058.611 2.79.611 3.848 0z" fill="#004482"/><path d="M43.866 13.276c-.348-.604-.83-1.131-1.358-1.437L24.14 1.235c-1.058-.611-2.79-.611-3.848 0L1.924 11.839C.866 12.45 0 13.95 0 15.172V36.38c0 .611.216 1.291.565 1.895l21.65-12.5 21.651-12.5z" fill="#659AD2"/><path d="M22.216 40.587c-8.167 0-14.81-6.644-14.81-14.81 0-8.167 6.643-14.811 14.81-14.811 5.27 0 10.184 2.836 12.825 7.4l-6.41 3.71a7.436 7.436 0 00-6.415-3.705c-4.084 0-7.406 3.322-7.406 7.405 0 4.084 3.322 7.406 7.406 7.406a7.436 7.436 0 006.416-3.705l6.41 3.709a14.864 14.864 0 01-12.826 7.4z" fill="#fff"/><path d="M37.026 24.953H35.38v-1.645h-1.645v1.645H32.09V26.6h1.646v1.646h1.645V26.6h1.646v-1.646zm6.171 0h-1.645v-1.645h-1.646v1.645h-1.645V26.6h1.645v1.646h1.646V26.6h1.645v-1.646z" fill="#fff"/></g><defs><clipPath id="clip0"><path fill="#fff" transform="translate(0 .776)" d="M0 0h44.431v50H0z"/></clipPath></defs></svg>