<svg width="50" height="51" fill="none" xmlns="http://www.w3.org/2000/svg"><g clip-path="url(#clip0)"><path d="M47.01 15.558c0-.827-.176-1.573-.543-2.197-.352-.624-.881-1.139-1.586-1.546-5.859-3.377-11.73-6.753-17.59-10.13-1.586-.909-3.105-.881-4.678.04-2.332 1.37-14.022 8.07-17.494 10.09-1.437.827-2.129 2.102-2.129 3.757v20.396c0 .813.176 1.532.515 2.156.353.637.896 1.18 1.614 1.6 3.486 2.02 15.162 8.706 17.494 10.09 1.573.922 3.106.962 4.679.04 5.858-3.39 11.73-6.753 17.589-10.13.732-.42 1.26-.95 1.614-1.6.339-.624.515-1.343.515-2.156v-20.41z" fill="#9A4993"/><path d="M25.054 25.688L3.478 38.11c.353.638.895 1.18 1.614 1.6 3.485 2.021 15.162 8.707 17.494 10.09 1.573.922 3.106.963 4.679.04 5.858-3.39 11.73-6.753 17.589-10.13.732-.42 1.26-.949 1.613-1.6L25.054 25.688z" fill="#6A1577"/><path d="M18.667 29.363a7.284 7.284 0 006.32 3.675 7.26 7.26 0 006.346-3.715l-6.279-3.635-6.387 3.675z" fill="#6A1577"/><path d="M47.01 15.558c0-.827-.176-1.573-.543-2.197L25.054 25.688l21.44 12.423c.34-.624.516-1.343.516-2.157V15.558z" fill="#813084"/><path d="M31.333 29.323a7.288 7.288 0 01-6.346 3.715 7.252 7.252 0 01-6.32-3.675 7.275 7.275 0 0112.612-7.255l6.36-3.661c-2.536-4.367-7.255-7.31-12.666-7.31-8.083 0-14.619 6.55-14.619 14.62 0 2.644.705 5.139 1.94 7.281a14.641 14.641 0 0012.692 7.337c5.438 0 10.185-2.97 12.707-7.377l-6.36-3.675zm8.042-7.025h-1.451v7.011h1.45v-7.011zm3.214 0h-1.451v7.011h1.45v-7.011z" fill="#fff"/><path d="M43.769 23.478h-7.011v1.45h7.01v-1.45zm0 3.2h-7.011v1.451h7.01v-1.45z" fill="#fff"/></g><defs><clipPath id="clip0"><path fill="#fff" transform="translate(0 .776)" d="M0 0h50v50H0z"/></clipPath></defs></svg>