<svg width="49" height="51" fill="none" xmlns="http://www.w3.org/2000/svg"><path d="M9.856 45.934c-.103 2.713-2.267 4.842-4.945 4.842C2.095 50.776 0 48.51 0 45.728a5.056 5.056 0 015.048-5.048c1.236 0 2.473.55 3.503 1.511l-.79.996C6.97 42.5 6.01 42.02 5.048 42.02a3.715 3.715 0 00-3.709 3.708c0 2.095 1.58 3.71 3.572 3.71 1.785 0 3.193-1.306 3.502-3.023H4.327v-1.202h5.529v.721zm4.67-.686h-.755c-.825 0-1.511.686-1.511 1.51v3.915h-1.34v-6.73h1.1v.55c.377-.379.927-.55 1.579-.55h1.442l-.515 1.305zm7.349 5.425h-1.168v-.858c-.893.858-2.266 1.27-3.674.652a3.484 3.484 0 01-2.026-2.54c-.412-2.164 1.27-4.087 3.4-4.087a3.27 3.27 0 012.3.961v-.858h1.168v6.73zm-1.374-2.85a2.12 2.12 0 00-2.06-2.61 2.103 2.103 0 00-2.095 2.095c0 1.305 1.133 2.3 2.473 2.095.79-.137 1.476-.79 1.682-1.58zm4.053-4.223v.377h2.129v1.168h-2.13v5.528H23.25v-7.04c0-1.476 1.064-2.335 2.404-2.335h1.614l-.55 1.271h-1.064a1.03 1.03 0 00-1.1 1.03zm9.271 7.073h-1.133v-.858c-.893.858-2.266 1.27-3.674.652a3.484 3.484 0 01-2.026-2.54c-.412-2.164 1.27-4.087 3.4-4.087.892 0 1.716.377 2.3.961v-.858h1.168v6.73h-.035zm-1.373-2.85a2.12 2.12 0 00-2.06-2.61 2.103 2.103 0 00-2.095 2.095c0 1.305 1.133 2.3 2.472 2.095.824-.137 1.477-.79 1.683-1.58zm8.551-1.099v3.95h-1.34V46.69c0-.824-.686-1.511-1.51-1.511-.86 0-1.512.687-1.512 1.51v3.984h-1.339v-6.73h1.1v.583a2.64 2.64 0 011.785-.686 2.866 2.866 0 012.816 2.884zm7.898 3.949h-1.133v-.858c-.893.858-2.267 1.27-3.675.652a3.484 3.484 0 01-2.026-2.54c-.412-2.164 1.271-4.087 3.4-4.087.893 0 1.717.377 2.3.961v-.858h1.168v6.73h-.034zm-1.373-2.85a2.12 2.12 0 00-2.06-2.61 2.103 2.103 0 00-2.096 2.095c0 1.305 1.133 2.3 2.473 2.095.824-.137 1.477-.79 1.683-1.58z" fill="#555"/><path d="M42.205 17.912a15.95 15.95 0 00-.378-2.232c-.206-.824-.55-1.717-.996-2.678-.48-.928-1.065-1.923-1.854-2.85-.31-.378-.653-.722-.996-1.1C38.53 6.89 37.328 5 37.328 5c-2.095-.137-3.4.653-3.88.996-.069-.034-.172-.069-.24-.103a37.969 37.969 0 00-1.1-.412c-.377-.103-.755-.24-1.133-.309-.378-.103-.79-.172-1.202-.24-.068 0-.137-.035-.206-.035-.893-2.884-3.503-4.12-3.503-4.12-2.987 1.922-3.57 4.498-3.57 4.498s0 .069-.035.137c-.172.035-.31.103-.481.138-.206.068-.447.137-.652.24-.207.103-.447.172-.653.275-.446.206-.858.412-1.305.652-.412.24-.824.481-1.202.756-.069-.035-.103-.069-.103-.069-4.018-1.545-7.59.31-7.59.31-.308 4.292 1.615 6.97 1.993 7.451-.103.275-.172.515-.275.79-.31.961-.515 1.957-.653 2.988-.034.137-.034.309-.068.446-3.71 1.82-4.808 5.598-4.808 5.598 3.09 3.571 6.73 3.777 6.73 3.777.447.824.997 1.614 1.58 2.335.24.31.516.584.79.893-1.133 3.228.172 5.941.172 5.941 3.468.137 5.735-1.511 6.216-1.889l1.03.31a14.98 14.98 0 003.228.48h1.408c1.614 2.335 4.499 2.644 4.499 2.644 2.026-2.163 2.163-4.258 2.163-4.739v-.206c.412-.309.824-.618 1.236-.961.824-.722 1.511-1.58 2.13-2.473.068-.069.102-.172.171-.24 2.3.137 3.915-1.443 3.915-1.443-.378-2.403-1.752-3.571-2.026-3.777l-.035-.034-.034-.035-.034-.034c0-.137.034-.275.034-.446.034-.275.034-.516.034-.79v-.996c0-.069 0-.137-.034-.206l-.034-.206-.035-.206c-.034-.275-.103-.515-.137-.79a10.173 10.173 0 00-1.167-2.885 10.716 10.716 0 00-1.958-2.335c-.755-.652-1.58-1.202-2.472-1.58a8.667 8.667 0 00-2.713-.755c-.447-.069-.928-.069-1.374-.069h-.687c-.24.035-.48.069-.687.103a7.804 7.804 0 00-2.54.962 7.697 7.697 0 00-1.958 1.683 6.878 6.878 0 00-1.236 2.094 7.434 7.434 0 00-.481 2.232v.825c0 .103 0 .171.034.274.034.378.103.721.206 1.065.206.687.515 1.305.927 1.854.412.55.859.962 1.374 1.305.515.344 1.03.584 1.58.756.549.171 1.064.24 1.545.206h.721c.069 0 .137-.035.172-.035.068 0 .103-.034.172-.034.102-.034.24-.069.343-.103.206-.069.412-.172.618-.24.206-.103.378-.206.515-.31.034-.034.103-.068.138-.102a.387.387 0 00.068-.55.48.48 0 00-.515-.103c-.034.035-.069.035-.137.069-.138.069-.31.137-.447.172-.172.034-.343.102-.515.137-.103 0-.172.034-.275.034h-.583s-.035 0 0 0h-.138c-.034 0-.103 0-.137-.034a5.015 5.015 0 01-1.168-.343 3.647 3.647 0 01-1.064-.722 4.332 4.332 0 01-.859-1.064 3.686 3.686 0 01-.446-1.305c-.034-.24-.069-.481-.034-.721v-.206c0 .034 0 0 0 0v-.172c0-.137.034-.24.068-.378a5.025 5.025 0 011.477-2.781 3.11 3.11 0 01.652-.516 3.9 3.9 0 01.721-.412 5.33 5.33 0 01.79-.274c.275-.07.55-.138.824-.138.138 0 .275-.034.412-.034h.275c.035 0 0 0 0 0h.138c.309.034.618.069.893.137a6.543 6.543 0 011.716.653c1.1.618 2.027 1.545 2.576 2.678.275.55.48 1.168.584 1.82.034.172.034.31.069.481v.893c0 .172-.035.343-.035.515-.034.172-.034.343-.069.515l-.102.515c-.07.344-.207.653-.31.996a7.21 7.21 0 01-.995 1.82 8.33 8.33 0 01-3.228 2.645c-.653.274-1.305.515-1.992.618a5.24 5.24 0 01-1.03.103h-.516c.035 0 0 0 0 0h-.034c-.172 0-.378 0-.55-.035a11.816 11.816 0 01-2.197-.412 10.754 10.754 0 01-2.06-.824c-1.305-.687-2.473-1.683-3.4-2.816a13.173 13.173 0 01-1.202-1.854c-.344-.653-.584-1.34-.79-2.026a8.892 8.892 0 01-.343-2.13v-1.063c0-.343.034-.721.102-1.099.035-.378.104-.721.172-1.099.069-.378.172-.721.275-1.099.206-.72.446-1.408.755-2.06.619-1.305 1.408-2.473 2.336-3.4.24-.24.48-.446.755-.652.103-.103.344-.31.618-.481.275-.172.55-.344.859-.48.137-.07.274-.138.446-.207.069-.034.137-.069.24-.103.07-.034.138-.069.241-.103.309-.137.618-.24.927-.343.069-.035.172-.035.24-.07.07-.033.172-.033.24-.068a2.53 2.53 0 00.482-.137c.068-.034.171-.034.24-.069.069 0 .172-.034.24-.034.07 0 .172-.035.24-.035l.138-.034.138-.034c.068 0 .171-.035.24-.035.103 0 .172-.034.275-.034.068 0 .206-.034.274-.034.07 0 .103 0 .172-.035h.241c.103 0 .171 0 .274-.034h.138s.034 0 0 0h1.27a15.52 15.52 0 011.82.206c1.168.206 2.301.584 3.297 1.099.996.48 1.923 1.099 2.678 1.751.035.035.104.07.138.138.034.034.103.069.137.137.103.069.172.172.275.24.103.07.172.172.275.24.068.104.171.173.24.276.344.343.653.72.927 1.064.55.721.996 1.442 1.34 2.13.034.034.034.068.068.137.035.034.035.068.069.137s.069.172.137.24c.035.07.069.172.103.24.035.07.069.172.103.241.138.31.24.618.344.927.171.481.275.893.378 1.237a.33.33 0 00.309.24c.171 0 .274-.137.274-.309-.034-.412-.034-.859-.068-1.374z" fill="url(#paint0_linear)"/><defs><linearGradient id="paint0_linear" x1="24.451" y1="48.205" x2="24.451" y2="12.884" gradientUnits="userSpaceOnUse"><stop stop-color="#FFF100"/><stop offset="1" stop-color="#F05A28"/></linearGradient></defs></svg>