<svg width="65" height="66" fill="none" xmlns="http://www.w3.org/2000/svg"><path fill-rule="evenodd" clip-rule="evenodd" d="M0 .776h65v65H0v-65z" fill="#fff"/><path fill-rule="evenodd" clip-rule="evenodd" d="M27.103 35.08s-1.553.904 1.106 1.21c3.221.367 4.867.314 8.416-.357 0 0 .935.585 2.239 1.091-7.959 3.41-18.012-.197-11.761-1.943zm-.973-4.45s-1.742 1.29.919 1.565c3.442.355 6.158.384 10.862-.52 0 0 .65.659 1.672 1.019-9.621 2.814-20.337.221-13.453-2.063z" fill="#3174B9"/><path fill-rule="evenodd" clip-rule="evenodd" d="M34.327 23.08c1.962 2.26-.514 4.29-.514 4.29s4.98-2.57 2.692-5.79c-2.135-3-3.773-4.49 5.093-9.632 0 0-13.917 3.474-7.27 11.133z" fill="#CA3132"/><path fill-rule="evenodd" clip-rule="evenodd" d="M44.853 38.373s1.149.947-1.266 1.68c-4.593 1.39-19.118 1.81-23.153.055-1.45-.631 1.27-1.506 2.126-1.69.892-.194 1.401-.159 1.401-.159-1.613-1.135-10.425 2.231-4.475 3.197 16.224 2.63 29.575-1.184 25.367-3.083zM27.849 26.019s-7.387 1.755-2.615 2.393c2.015.27 6.03.208 9.773-.106 3.058-.257 6.127-.806 6.127-.806s-1.077.462-1.858.995c-7.503 1.973-21.996 1.054-17.824-.963 3.528-1.707 6.397-1.513 6.397-1.513zm13.254 7.408c7.627-3.963 4.1-7.771 1.639-7.258-.602.126-.872.235-.872.235s.224-.352.651-.503c4.87-1.711 8.614 5.049-1.57 7.726 0 0 .117-.106.152-.2z" fill="#3174B9"/><path fill-rule="evenodd" clip-rule="evenodd" d="M36.505 3.644S40.728 7.87 32.5 14.365c-6.6 5.213-1.505 8.184-.002 11.58-3.853-3.475-6.68-6.535-4.783-9.383 2.783-4.18 10.495-6.207 8.791-12.918z" fill="#CA3132"/><path fill-rule="evenodd" clip-rule="evenodd" d="M28.6 44.167c7.32.468 18.562-.26 18.828-3.724 0 0-.511 1.313-6.05 2.355-6.248 1.176-13.956 1.039-18.526.285 0 0 .937.775 5.748 1.084z" fill="#3174B9"/><path fill-rule="evenodd" clip-rule="evenodd" d="M47.09 50.38h-.222v-.126h.6v.125h-.222v.623h-.156v-.623zm1.199.03h-.003l-.221.592h-.102l-.22-.592h-.002v.592h-.148v-.748h.217l.203.53.204-.53h.215v.748h-.143v-.592zM27.4 57.402c-.69.598-1.42.934-2.075.934-.933 0-1.44-.56-1.44-1.458 0-.971.542-1.682 2.713-1.682h.802v2.206zm1.905 2.15v-6.655c0-1.7-.97-2.823-3.307-2.823-1.364 0-2.56.337-3.532.767l.28 1.178c.766-.281 1.756-.542 2.727-.542 1.347 0 1.927.542 1.927 1.664v.841h-.673c-3.272 0-4.748 1.27-4.748 3.178 0 1.644.973 2.579 2.804 2.579 1.177 0 2.057-.486 2.878-1.197l.15 1.01h1.494zm6.36 0h-2.376l-2.86-9.308h2.074l1.776 5.72.395 1.718c.896-2.486 1.531-5.01 1.85-7.438h2.017c-.54 3.064-1.513 6.429-2.877 9.307zm9.117-2.15c-.693.598-1.422.934-2.076.934-.934 0-1.44-.56-1.44-1.458 0-.971.543-1.682 2.712-1.682h.804v2.206zm1.906 2.15v-6.655c0-1.7-.973-2.823-3.309-2.823-1.365 0-2.56.337-3.533.767l.28 1.178c.766-.281 1.758-.542 2.73-.542 1.345 0 1.925.542 1.925 1.664v.841h-.673c-3.272 0-4.747 1.27-4.747 3.178 0 1.644.97 2.579 2.803 2.579 1.178 0 2.056-.486 2.879-1.197l.15 1.01h1.495zm-26.798 1.58c-.543.794-1.421 1.422-2.381 1.777l-.941-1.108c.731-.376 1.358-.982 1.65-1.546.25-.502.356-1.148.356-2.695V46.933h2.025v10.48c0 2.07-.166 2.905-.71 3.72z" fill="#CA3132"/></svg>