<svg width="70" height="50" fill="none" xmlns="http://www.w3.org/2000/svg"><g clip-path="url(#clip0)"><path d="M21.427 39.964h-1.895a105.729 105.729 0 00-.553-9.024h-.017l-2.885 9.024h-1.443l-2.868-9.024h-.017c-.213 2.706-.347 5.713-.402 9.024H9.619c.112-4.026.392-7.8.839-11.323h2.348l2.734 8.32h.017l2.75-8.32h2.248c.492 4.127.783 7.901.872 11.323zm8.219-8.354c-.772 4.187-1.79 7.23-3.053 9.129-.984 1.462-2.063 2.193-3.237 2.193-.313 0-.7-.094-1.158-.282v-1.01c.224.033.487.051.789.051.548 0 .989-.15 1.325-.453.402-.368.603-.783.603-1.24 0-.315-.156-.957-.47-1.93l-2.079-6.458h1.862l1.493 4.83c.335 1.097.475 1.863.419 2.299.816-2.18 1.386-4.557 1.711-7.13h1.795v.001z" fill="#5D87A1"/><path d="M54.872 39.964h-5.383V28.642h1.81v9.928h3.573v1.394zm-6.792.274l-2.082-1.027c.184-.152.361-.316.52-.506.885-1.04 1.326-2.576 1.326-4.612 0-3.746-1.47-5.62-4.41-5.62-1.443 0-2.568.475-3.372 1.426-.884 1.04-1.326 2.572-1.326 4.597 0 1.99.391 3.45 1.174 4.376.716.84 1.795 1.26 3.238 1.26.538 0 1.032-.067 1.483-.2l2.71 1.578.739-1.272zm-6.743-2.54c-.459-.737-.688-1.921-.688-3.554 0-2.851.866-4.278 2.6-4.278.906 0 1.57.341 1.995 1.022.458.739.688 1.912.688 3.523 0 2.874-.866 4.311-2.6 4.311-.906 0-1.57-.34-1.995-1.023zm-3.39-.872c0 .96-.352 1.748-1.056 2.365-.705.614-1.65.922-2.833.922-1.108 0-2.181-.354-3.22-1.057l.486-.973c.894.448 1.704.67 2.43.67.683 0 1.216-.15 1.603-.45a1.54 1.54 0 00.617-1.258c0-.672-.47-1.247-1.33-1.729-.794-.436-2.38-1.347-2.38-1.347-.861-.627-1.292-1.3-1.292-2.409 0-.917.322-1.658.964-2.222.644-.565 1.474-.847 2.491-.847 1.051 0 2.007.281 2.867.839l-.436.972c-.736-.313-1.463-.469-2.18-.469-.58 0-1.028.14-1.34.42-.314.279-.508.636-.508 1.074 0 .67.48 1.252 1.363 1.743a181.73 181.73 0 012.431 1.363c.883.626 1.323 1.293 1.323 2.393z" fill="#F8981D"/><path d="M57.145 24.849c-1.095-.028-1.943.082-2.654.383-.205.082-.532.082-.56.342.11.11.123.287.22.439.163.273.45.641.71.833.287.22.575.438.877.63.532.328 1.135.52 1.654.848.302.19.602.438.905.643.148.11.244.287.437.356v-.042c-.097-.123-.125-.301-.22-.438l-.41-.396a6.508 6.508 0 00-1.423-1.381c-.438-.302-1.396-.712-1.573-1.217l-.028-.028c.3-.028.658-.137.944-.22.465-.124.89-.096 1.367-.218.22-.055.438-.124.658-.192v-.123c-.247-.247-.424-.574-.684-.807a18.217 18.217 0 00-2.257-1.683c-.425-.274-.971-.45-1.424-.684-.163-.082-.437-.123-.533-.26-.246-.3-.384-.697-.562-1.053a34.246 34.246 0 01-1.12-2.381c-.248-.534-.398-1.066-.699-1.56-1.41-2.325-2.94-3.733-5.294-5.116-.506-.287-1.107-.41-1.75-.561l-1.026-.054c-.22-.096-.439-.357-.63-.48-.78-.492-2.79-1.558-3.365-.15-.37.89.547 1.765.862 2.217.233.313.534.67.697 1.026.096.233.123.48.22.725.218.602.423 1.272.71 1.834.151.286.315.587.507.846.11.152.3.219.342.466-.19.273-.205.684-.315 1.026-.492 1.546-.3 3.46.398 4.596.218.343.739 1.095 1.435.807.617-.246.48-1.026.658-1.71.04-.165.014-.273.096-.382v.027c.19.383.383.752.56 1.135.424.67 1.163 1.368 1.779 1.832.328.248.587.671.998.822v-.04h-.027c-.083-.123-.205-.178-.314-.274a6.63 6.63 0 01-.712-.82 17.618 17.618 0 01-1.531-2.49c-.22-.426-.41-.89-.588-1.314-.083-.164-.083-.41-.22-.493-.206.3-.506.561-.656.93-.26.589-.288 1.313-.384 2.067l-.054.027c-.436-.11-.588-.56-.753-.944-.41-.971-.479-2.531-.123-3.653.095-.286.507-1.19.343-1.463-.083-.262-.357-.41-.507-.617a5.565 5.565 0 01-.493-.875c-.328-.766-.493-1.614-.846-2.38-.166-.356-.452-.725-.684-1.054-.261-.369-.548-.629-.754-1.067-.068-.15-.164-.396-.054-.56.026-.11.082-.15.191-.178.177-.15.684.04.861.123.508.205.932.396 1.355.684.192.137.397.397.643.465h.288c.436.096.929.027 1.34.15a8.806 8.806 0 011.97.944 12.14 12.14 0 014.268 4.68c.163.313.233.601.382.929.288.67.645 1.355.93 2.011.288.643.562 1.3.973 1.833.204.287 1.027.438 1.395.588.273.123.698.232.944.383.466.286.93.616 1.367.931.218.164.903.506.943.78zM43.191 12.961a2.132 2.132 0 00-.56.069v.027h.026c.11.219.302.37.439.561.11.22.205.437.313.656l.027-.027c.193-.137.289-.356.289-.684-.084-.097-.096-.192-.166-.287-.08-.137-.258-.206-.368-.315z" fill="#5D87A1"/><path d="M58.448 39.962h.283v-1.387h-.425l-.346.947-.377-.947h-.41v1.387h.268v-1.055h.015l.395 1.055h.204l.393-1.055v1.055zm-2.283 0h.3V38.81h.392v-.235h-1.101v.235h.408v1.152z" fill="#F8981D"/></g><defs><clipPath id="clip0"><path fill="#fff" transform="translate(0 .776)" d="M0 0h70v48.524H0z"/></clipPath></defs></svg>