<svg width="1640" height="466" fill="none" xmlns="http://www.w3.org/2000/svg"><path d="M256.5 289.9V183l-26.7 99.5h-42.9L160.2 183v106.9h-45.6V110H183l25.4 104.5L233.7 110H302v179.9h-45.5zm175.8 3.4c-8.9 0-16-.6-21.6-1.9-4.7-1.1-9.5-3.1-14.3-6-11.7 5.2-23.8 7.9-36 7.9-28.8 0-44.1-16-44.1-46.3 0-15 4.3-26 12.9-32.5 8-6.4 19.8-10 35.8-11.1l21.2-1.6v-2.4c0-3.9-.8-5.6-1.3-6l-.2-.2c-.6-.5-2.4-1.6-7.4-1.6l-52.1 2.2-1.4-33.2 4.4-1.2c18.1-4.9 35.5-7.4 51.8-7.4 17.7 0 30.3 3.8 38.4 11.5 8.2 7.7 12.4 19.7 12.4 35.8v51.3c.3 3.3.8 4.9 1 5.5.3.2 1 .6 2.6.9l4.7 1-1.4 35.3h-5.4zm-62.5-55.5c-6.3.6-8.7 3.1-8.7 9.2 0 7.4 2.9 8 6.5 8 5.6 0 11.9-.9 18.6-2.7v-16l-16.4 1.5zm155.7 52.5v-71.9c0-12-1.7-17.9-3.1-20.8-.6-1.3-2.2-4.6-9.8-4.6-5.8 0-11.5 1-16.9 2.9v94.3h-44.6V155h44.3v3.2c8.9-4.1 17.4-6.2 25.3-6.2 18.5 0 31.6 5.8 39 17.2 6.9 10.8 10.3 26.5 10.3 48.2v72.9h-44.5zm170.5 3c-8.9 0-16-.6-21.6-1.9-4.7-1.1-9.5-3.1-14.3-6-11.7 5.2-23.8 7.9-36 7.9-28.8 0-44.1-16-44.1-46.3 0-15 4.3-26 12.9-32.5 8-6.4 19.8-10 35.8-11.1l21.2-1.6v-2.4c0-3.9-.8-5.6-1.3-6l-.2-.2c-.6-.5-2.4-1.6-7.4-1.6l-52.1 2.2-1.4-33.2 4.4-1.2c18.1-4.9 35.5-7.4 51.8-7.4 17.7 0 30.3 3.8 38.4 11.5 8.2 7.7 12.4 19.7 12.4 35.8v51.3c.3 3.3.8 4.9 1 5.5.3.2 1 .6 2.7.9l4.7 1-1.4 35.3H696zm-62.5-55.5c-6.3.6-8.7 3.1-8.7 9.2 0 7.4 2.9 8 6.5 8 5.6 0 11.9-.9 18.6-2.7v-16l-16.4 1.5zm138.5 109c-19.6 0-34.4-2.6-45.4-8-8.2-4.1-18-13-18-32.1 0-10.5 5-20.5 14.9-29.7-4.1-4.9-6.3-11.2-6.3-18.7 0-4.4 2.4-10.2 7.8-18.6-10-9-15-21.4-15-36.9 0-17.7 5.5-30.8 16.4-39C737 156 750.9 152 767.7 152c7.5 0 15 .9 22.2 2.6l3.2.6 45.1-1.4v38.5l-14.9-1.2c1.1 3.5 1.7 6.9 1.7 10.4 0 18.3-5 31.4-14.9 38.8-9.5 7.1-23.6 10.5-43.1 10.5-2.2 0-4.3-.1-6.3-.3-.5 2-.7 3.3-.7 4.2.1.1.2.1.4.2 1 .4 4.8 1.2 18 1.4 22.2.2 37.2 3.3 45.9 9.5 9.1 6.3 13.8 17.7 13.8 33.6 0 16.2-6.4 28.5-19 36.3-11.5 7.4-27.4 11.1-47.1 11.1zm-16-51.9c-2.2 2.7-3.3 5.5-3.3 8.3 0 2.4 6.4 5 20.4 5 6.2 0 20.6-.7 20.6-6.7 0-1.9-.3-3.1-1-3.5-1.3-.4-5.2-1.3-16.7-1.5h-.2l-19.8-1.6zm11.8-105.8c-9.5 0-13.2 3.6-13.2 12.7 0 8.9 3.7 12.4 13.2 12.4s13.4-3.6 13.4-12.4c0-9-3.9-12.7-13.4-12.7zM900 293.2c-20.3 0-35.5-5.7-45-16.9-9.4-11.1-14-28.1-14-52 0-23.5 5-41.5 15-53.6 10.2-12.4 25.5-18.7 45.5-18.7 39.1 0 59.7 21.3 59.7 61.7v.3l-3.1 28.4h-71.7c.6 2.9 1.8 5.2 3.4 6.7 2.9 2.4 7.3 3.6 13.1 3.6 15.1 0 28.8-.5 40.6-1.5l13-1.4.7 35.3-4.4 1.1c-19.3 4.6-37.1 7-52.8 7zm16.9-87.4c-.6-7-2.2-10-3.2-11.3l-.1-.1c-2-2.5-6.1-3.8-12.2-3.8-5.9 0-10 1.4-12.2 4.1-1.3 1.6-2.7 4.8-3.4 11.1h31.1zm202 84.5v-71.9c0-12.1-1.6-18-2.9-20.9-.9-2.1-2.8-4.4-8.8-4.4-4.6 0-10.4 1-17.2 3.1.5 10.4.8 18.5.8 24.2v69.9h-44.6v-69.4c0-14.2-1.5-20.6-2.8-23.5-.6-1.3-1.8-4.3-8.9-4.3-5.5 0-11 1-16.4 2.9v94.3h-44.6V155h44.3v3.2c8.8-4.2 16.6-6.2 23.6-6.2 13.2 0 23.9 3.5 32 10.5 14.6-7 28.2-10.5 40.6-10.5 18.3 0 31.3 5.7 38.7 16.9 7.2 10.5 10.6 26.4 10.6 48.5v72.9h-44.4zm115.4 2.9c-20.3 0-35.5-5.7-45-16.9-9.4-11.1-14-28.1-14-52 0-23.5 5-41.5 15-53.6 10.2-12.4 25.5-18.7 45.5-18.7 39.1 0 59.7 21.3 59.7 61.7v.3l-3.1 28.4h-71.7c.6 2.9 1.8 5.2 3.4 6.7 2.9 2.4 7.3 3.6 13.1 3.6 15.1 0 28.8-.5 40.6-1.5l13-1.4.7 35.3-4.4 1.1c-19.2 4.6-37 7-52.8 7zm17-87.4c-.6-7-2.2-10-3.2-11.3l-.1-.1c-2-2.5-6.1-3.8-12.2-3.8-5.9 0-10 1.4-12.2 4.1-1.3 1.6-2.7 4.8-3.4 11.1h31.1zm131 84.5v-71.9c0-12-1.7-17.9-3.1-20.8-.6-1.3-2.2-4.6-9.8-4.6-5.8 0-11.5 1-16.9 2.9v94.3H1308V155h44.3v3.2c8.9-4.1 17.4-6.2 25.3-6.2 18.5 0 31.6 5.8 39 17.2 6.9 10.8 10.3 26.5 10.3 48.2v72.9h-44.6zm112 2.5c-16.8 0-28.2-3.9-34.9-12-6.4-7.9-9.5-21.3-9.5-40.8v-45.9h-14.6v-39.6h14.6V120h44.6v34.5h30.5v39.6h-30.5v45.2c0 4.6.1 7.9.2 9.9.1.7.4 1.2 1 1.8.3.2 1.2.7 3.5.7l24.3-.6 2.1 36.8-4.7 1.1c-11.7 2.6-20.4 3.8-26.6 3.8z" fill="#fff"/></svg>