<svg width="1445" height="471" fill="none" xmlns="http://www.w3.org/2000/svg"><path d="M159.1 299.9V161.6H114V120h135.3v41.6h-44.6v138.3h-45.6z" fill="#fff"/><path d="M292.2 303.2c-20.3 0-35.5-5.7-45-16.9-9.4-11.1-14-28.1-14-52 0-23.5 5-41.5 15-53.6 10.2-12.4 25.5-18.7 45.5-18.7 39.1 0 59.7 21.3 59.7 61.7v.3l-3.1 28.4h-71.7c.6 2.9 1.8 5.2 3.4 6.7 2.9 2.4 7.3 3.6 13.1 3.6 15.1 0 28.8-.5 40.6-1.5l13-1.4.7 35.3-4.4 1.1c-19.3 4.6-37.1 7-52.8 7zm16.9-87.4c-.6-7-2.2-10-3.2-11.3l-.1-.1c-2-2.5-6.1-3.8-12.2-3.8-5.9 0-10 1.4-12.2 4.1-1.3 1.6-2.7 4.8-3.4 11.1h31.1zm108 87.4c-20.1 0-34.9-5.9-44.1-17.5l-.1-.1c-8.8-11.5-13.1-29-13.1-53.3 0-24.4 4.5-41.7 13.7-52.9 9.3-11.6 24.2-17.4 44.3-17.4 8.9 0 20.4 1.4 34.1 4.1l11.4 2.5-1.4 37-6-.6c-12.8-1.3-22.4-2-28.4-2-9.4 0-15.7 1.8-18.3 5.2-1.6 2.1-4.3 8-4.3 24.1 0 15.2 2.3 21.8 4.3 24.6 2.6 3.3 9 5.1 18.3 5.1l34.4-2.4 1.4 37.2-4.8.9c-18.1 3.8-31.7 5.5-41.4 5.5zm133.7-3.4v-72.1c0-11.8-1.7-17.7-3.1-20.5-.6-1.3-2.2-4.6-9.8-4.6-5.6 0-11.3.8-16.9 2.5v94.7h-44.6V115H521v52.3c9-3.8 17.4-5.7 25.1-5.7 18.5 0 31.6 5.8 39 17.2 6.9 10.8 10.3 26.5 10.3 48.2v72.9h-44.6v-.1zm137 .5v-71.9c0-12-1.7-17.9-3.1-20.8-.6-1.3-2.2-4.6-9.8-4.6-5.8 0-11.5 1-16.9 2.9v94.3h-44.6V165h44.3v3.2c8.9-4.1 17.4-6.2 25.3-6.2 18.5 0 31.6 5.8 39 17.2 6.9 10.8 10.3 26.5 10.3 48.2v72.9h-44.5zm118.9 2.9c-20.6 0-36.5-6.1-47-18.2-10.4-11.9-15.7-29.6-15.7-52.6 0-21.7 4.8-38.9 14.3-51.1 9.8-12.8 26.1-19.3 48.4-19.3 22.3 0 38.5 6.5 48.4 19.3 9.5 12.2 14.3 29.4 14.3 51.1 0 23-5.3 40.8-15.7 52.6-10.5 12.1-26.3 18.2-47 18.2zm-13.4-45.6c1.5 2.6 4.6 6.1 13.4 6.1s11.7-3.4 13.1-6l.1-.1c2.9-5 4.4-13.5 4.4-25.2 0-14.5-2.4-21.5-4.4-24.8l-.1-.1c-1.4-2.5-4.3-5.8-13.2-5.8-8.8 0-11.9 3.3-13.5 5.9-1.9 3.4-4.2 10.4-4.2 24.9.2 11.5 1.6 20 4.4 25.1zm90.6 42.2V115h44.6v184.9h-44.6v-.1zm121.6 3.4c-20.6 0-36.5-6.1-47-18.2-10.4-11.9-15.7-29.6-15.7-52.6 0-21.7 4.8-38.9 14.3-51.1 9.8-12.8 26.1-19.3 48.4-19.3 22.3 0 38.5 6.5 48.4 19.3 9.5 12.2 14.3 29.4 14.3 51.1 0 23-5.3 40.8-15.7 52.6-10.5 12.1-26.4 18.2-47 18.2zm-13.4-45.6c1.5 2.6 4.6 6.1 13.4 6.1s11.7-3.4 13.1-6l.1-.1c2.9-5 4.4-13.5 4.4-25.2 0-14.5-2.4-21.5-4.4-24.8l-.1-.1c-1.4-2.5-4.3-5.8-13.2-5.8-8.8 0-11.9 3.3-13.5 5.9-1.9 3.4-4.2 10.4-4.2 24.9.2 11.5 1.6 20 4.4 25.1zm146.3 99.2c-19.6 0-34.4-2.6-45.4-8-8.3-4.1-18-13-18-32.1 0-10.5 5-20.5 14.9-29.7-4.1-4.9-6.2-11.2-6.2-18.7 0-4.5 2.4-10.2 7.8-18.6-10-9-15-21.4-15-36.9 0-17.7 5.5-30.8 16.4-39 10.6-7.8 24.5-11.8 41.3-11.8 7.5 0 15 .9 22.2 2.6l3.2.6 45.2-1.4v38.5l-14.9-1.2c1.1 3.5 1.7 6.9 1.7 10.4 0 18.3-5 31.4-14.9 38.8-9.5 7.1-23.6 10.5-43 10.5-2.2 0-4.3-.1-6.3-.3-.5 2-.7 3.3-.7 4.2.1 0 .2.1.4.2 1 .4 4.8 1.2 18 1.4 22.2.2 37.2 3.3 45.9 9.5 9.1 6.3 13.8 17.7 13.8 33.6 0 16.2-6.4 28.5-19 36.3-11.8 7.4-27.7 11.1-47.4 11.1zm-16-51.9c-2.2 2.7-3.3 5.5-3.3 8.3 0 1.9 4.3 5 20.4 5 6.2 0 20.6-.7 20.6-6.7 0-1.9-.3-3.1-1-3.5-1.2-.4-5.2-1.3-16.7-1.5h-.2l-19.8-1.6zm11.8-105.8c-9.5 0-13.2 3.6-13.2 12.7 0 8.9 3.7 12.4 13.2 12.4 9.7 0 13.4-3.5 13.4-12.4.1-9.2-3.7-12.7-13.4-12.7z" fill="#fff"/><path d="M1234.8 185c11 5.4-19.6 0 0 0 0 19.1-8.3-4.1 0 0-9.9 9.2 0-10.5 0 0 0 7.5-4.1-4.9 0 0-5.4 8.4 0-4.5 0 0 0 15.5-10-9 0 0-10.9 8.2 0-17.7 0 0-16.8 0 10.6-7.8 0 0 7.5 0 2.2-1.7-30.6-20h40.3l20.9 88.7 20.9-88.7h44.5l-46.4 187.4h-44.3l13.6-52.1h-20.4L1204.2 165c2.2 0 1.1 3.5 0 0 33.7 19.4 37.98 14.766 30.6 20 8.01-5.987-31.28 22.183 0 0 19.4 0-9.5 7.1 0 0 2 .2-2.2 0 0 0 0-.9-.5 2 0 0-.2-.1.1 0 0 0-13.2-.2 1 .4 0 0-8.7-6.2 22.2.2 0 0 0-15.9 9.1 6.3 0 0 12.6-7.8 0 16.2 0 0 19.7 0-11.8 7.4 0 0z" fill="#fff"/></svg>